<mxfile host="app.diagrams.net" modified="2023-10-05T12:55:26.778Z" agent="Mozilla/5.0 (Windows NT 10.0; Win64; x64) AppleWebKit/537.36 (KHTML, like Gecko) Chrome/117.0.0.0 Safari/537.36 Edg/117.0.2045.43" etag="G-kwwAv3S_5IMvDP_tdN" version="22.0.0" type="github">
  <diagram name="Seite-1" id="5r65vuRkeiLdLsrQL4e6">
    <mxGraphModel dx="874" dy="583" grid="1" gridSize="13" guides="1" tooltips="1" connect="1" arrows="1" fold="1" page="1" pageScale="1" pageWidth="827" pageHeight="1169" math="0" shadow="0">
      <root>
        <mxCell id="0" />
        <mxCell id="1" parent="0" />
        <mxCell id="S7pL7fSciTL6mfDPEQfJ-85" value="" style="rounded=1;whiteSpace=wrap;html=1;dashed=1;" parent="1" vertex="1">
          <mxGeometry x="52" y="195" width="767" height="468" as="geometry" />
        </mxCell>
        <mxCell id="S7pL7fSciTL6mfDPEQfJ-81" value="" style="rounded=1;whiteSpace=wrap;html=1;dashed=1;dashPattern=8 8;" parent="1" vertex="1">
          <mxGeometry x="170" y="507" width="558" height="143" as="geometry" />
        </mxCell>
        <mxCell id="S7pL7fSciTL6mfDPEQfJ-79" value="" style="rounded=1;whiteSpace=wrap;html=1;dashed=1;dashPattern=8 8;" parent="1" vertex="1">
          <mxGeometry x="169" y="280" width="559" height="227" as="geometry" />
        </mxCell>
        <mxCell id="S7pL7fSciTL6mfDPEQfJ-2" value="Motor" style="rounded=0;whiteSpace=wrap;html=1;" parent="1" vertex="1">
          <mxGeometry x="586" y="360" width="94" height="40" as="geometry" />
        </mxCell>
        <mxCell id="S7pL7fSciTL6mfDPEQfJ-4" value="I" style="rounded=0;whiteSpace=wrap;html=1;" parent="1" vertex="1">
          <mxGeometry x="270" y="390" width="70" height="30" as="geometry" />
        </mxCell>
        <mxCell id="S7pL7fSciTL6mfDPEQfJ-5" value="P" style="rounded=0;whiteSpace=wrap;html=1;" parent="1" vertex="1">
          <mxGeometry x="270" y="340" width="70" height="30" as="geometry" />
        </mxCell>
        <mxCell id="S7pL7fSciTL6mfDPEQfJ-6" value="+" style="ellipse;whiteSpace=wrap;html=1;aspect=fixed;" parent="1" vertex="1">
          <mxGeometry x="360" y="370" width="20" height="20" as="geometry" />
        </mxCell>
        <mxCell id="S7pL7fSciTL6mfDPEQfJ-7" value="Encoder" style="rounded=0;whiteSpace=wrap;html=1;" parent="1" vertex="1">
          <mxGeometry x="424" y="460" width="94" height="40" as="geometry" />
        </mxCell>
        <mxCell id="S7pL7fSciTL6mfDPEQfJ-8" value="PWM" style="rounded=0;whiteSpace=wrap;html=1;" parent="1" vertex="1">
          <mxGeometry x="450" y="360" width="94" height="40" as="geometry" />
        </mxCell>
        <mxCell id="S7pL7fSciTL6mfDPEQfJ-9" value="" style="endArrow=classic;html=1;rounded=0;exitX=1;exitY=0.5;exitDx=0;exitDy=0;entryX=0.5;entryY=0;entryDx=0;entryDy=0;" parent="1" source="S7pL7fSciTL6mfDPEQfJ-5" target="S7pL7fSciTL6mfDPEQfJ-6" edge="1">
          <mxGeometry width="50" height="50" relative="1" as="geometry">
            <mxPoint x="530" y="460" as="sourcePoint" />
            <mxPoint x="390" y="330" as="targetPoint" />
            <Array as="points">
              <mxPoint x="370" y="355" />
            </Array>
          </mxGeometry>
        </mxCell>
        <mxCell id="S7pL7fSciTL6mfDPEQfJ-10" value="" style="endArrow=classic;html=1;rounded=0;exitX=1;exitY=0.5;exitDx=0;exitDy=0;entryX=0.5;entryY=1;entryDx=0;entryDy=0;" parent="1" source="S7pL7fSciTL6mfDPEQfJ-4" target="S7pL7fSciTL6mfDPEQfJ-6" edge="1">
          <mxGeometry width="50" height="50" relative="1" as="geometry">
            <mxPoint x="350" y="365" as="sourcePoint" />
            <mxPoint x="380" y="410" as="targetPoint" />
            <Array as="points">
              <mxPoint x="370" y="405" />
            </Array>
          </mxGeometry>
        </mxCell>
        <mxCell id="S7pL7fSciTL6mfDPEQfJ-11" value="" style="endArrow=classic;html=1;rounded=0;exitX=1;exitY=0.5;exitDx=0;exitDy=0;entryX=0;entryY=0.5;entryDx=0;entryDy=0;" parent="1" source="S7pL7fSciTL6mfDPEQfJ-6" target="S7pL7fSciTL6mfDPEQfJ-8" edge="1">
          <mxGeometry width="50" height="50" relative="1" as="geometry">
            <mxPoint x="530" y="460" as="sourcePoint" />
            <mxPoint x="580" y="410" as="targetPoint" />
          </mxGeometry>
        </mxCell>
        <mxCell id="S7pL7fSciTL6mfDPEQfJ-12" value="" style="endArrow=classic;html=1;rounded=0;entryX=0;entryY=0.5;entryDx=0;entryDy=0;exitX=1;exitY=0.5;exitDx=0;exitDy=0;" parent="1" source="S7pL7fSciTL6mfDPEQfJ-8" target="S7pL7fSciTL6mfDPEQfJ-2" edge="1">
          <mxGeometry width="50" height="50" relative="1" as="geometry">
            <mxPoint x="530" y="460" as="sourcePoint" />
            <mxPoint x="580" y="410" as="targetPoint" />
          </mxGeometry>
        </mxCell>
        <mxCell id="S7pL7fSciTL6mfDPEQfJ-14" value="" style="endArrow=classic;html=1;rounded=0;entryX=0.5;entryY=1;entryDx=0;entryDy=0;exitX=0;exitY=0.5;exitDx=0;exitDy=0;" parent="1" source="S7pL7fSciTL6mfDPEQfJ-7" target="S7pL7fSciTL6mfDPEQfJ-21" edge="1">
          <mxGeometry width="50" height="50" relative="1" as="geometry">
            <mxPoint x="416.8" y="484" as="sourcePoint" />
            <mxPoint x="180.00000000000006" y="400" as="targetPoint" />
            <Array as="points">
              <mxPoint x="180" y="480" />
            </Array>
          </mxGeometry>
        </mxCell>
        <mxCell id="S7pL7fSciTL6mfDPEQfJ-20" style="edgeStyle=orthogonalEdgeStyle;rounded=0;orthogonalLoop=1;jettySize=auto;html=1;entryX=0;entryY=0.75;entryDx=0;entryDy=0;" parent="1" target="S7pL7fSciTL6mfDPEQfJ-4" edge="1">
          <mxGeometry relative="1" as="geometry">
            <mxPoint x="220" y="370" as="sourcePoint" />
            <Array as="points">
              <mxPoint x="220" y="412" />
            </Array>
          </mxGeometry>
        </mxCell>
        <mxCell id="S7pL7fSciTL6mfDPEQfJ-18" value="" style="endArrow=classic;html=1;rounded=0;exitX=0.5;exitY=0;exitDx=0;exitDy=0;entryX=0;entryY=0.5;entryDx=0;entryDy=0;" parent="1" target="S7pL7fSciTL6mfDPEQfJ-5" edge="1">
          <mxGeometry width="50" height="50" relative="1" as="geometry">
            <mxPoint x="220" y="370" as="sourcePoint" />
            <mxPoint x="220" y="350" as="targetPoint" />
            <Array as="points">
              <mxPoint x="220" y="355" />
            </Array>
          </mxGeometry>
        </mxCell>
        <mxCell id="S7pL7fSciTL6mfDPEQfJ-21" value="+" style="ellipse;whiteSpace=wrap;html=1;aspect=fixed;" parent="1" vertex="1">
          <mxGeometry x="170" y="370" width="20" height="20" as="geometry" />
        </mxCell>
        <mxCell id="S7pL7fSciTL6mfDPEQfJ-24" value="" style="endArrow=classic;html=1;rounded=0;exitX=1;exitY=0.5;exitDx=0;exitDy=0;" parent="1" source="S7pL7fSciTL6mfDPEQfJ-21" edge="1">
          <mxGeometry width="50" height="50" relative="1" as="geometry">
            <mxPoint x="450" y="500" as="sourcePoint" />
            <mxPoint x="220" y="380" as="targetPoint" />
          </mxGeometry>
        </mxCell>
        <mxCell id="S7pL7fSciTL6mfDPEQfJ-27" value="-" style="text;html=1;strokeColor=none;fillColor=none;align=center;verticalAlign=middle;whiteSpace=wrap;rounded=0;" parent="1" vertex="1">
          <mxGeometry x="476" y="570" width="34" height="16" as="geometry" />
        </mxCell>
        <mxCell id="S7pL7fSciTL6mfDPEQfJ-43" value="" style="edgeStyle=orthogonalEdgeStyle;rounded=0;orthogonalLoop=1;jettySize=auto;html=1;" parent="1" source="S7pL7fSciTL6mfDPEQfJ-63" edge="1">
          <mxGeometry relative="1" as="geometry">
            <mxPoint x="468" y="560" as="targetPoint" />
          </mxGeometry>
        </mxCell>
        <mxCell id="S7pL7fSciTL6mfDPEQfJ-32" value="Distance Sensor" style="rounded=0;whiteSpace=wrap;html=1;" parent="1" vertex="1">
          <mxGeometry x="611" y="540" width="94" height="40" as="geometry" />
        </mxCell>
        <mxCell id="S7pL7fSciTL6mfDPEQfJ-35" value="" style="endArrow=classic;html=1;rounded=0;entryX=1;entryY=0.5;entryDx=0;entryDy=0;" parent="1" target="S7pL7fSciTL6mfDPEQfJ-7" edge="1">
          <mxGeometry width="50" height="50" relative="1" as="geometry">
            <mxPoint x="715" y="481" as="sourcePoint" />
            <mxPoint x="479" y="442" as="targetPoint" />
          </mxGeometry>
        </mxCell>
        <mxCell id="S7pL7fSciTL6mfDPEQfJ-36" value="" style="endArrow=none;html=1;rounded=0;exitX=1;exitY=0.5;exitDx=0;exitDy=0;" parent="1" source="S7pL7fSciTL6mfDPEQfJ-2" edge="1">
          <mxGeometry width="50" height="50" relative="1" as="geometry">
            <mxPoint x="429" y="492" as="sourcePoint" />
            <mxPoint x="715" y="481" as="targetPoint" />
            <Array as="points">
              <mxPoint x="715" y="380" />
            </Array>
          </mxGeometry>
        </mxCell>
        <mxCell id="S7pL7fSciTL6mfDPEQfJ-44" value="I" style="rounded=0;whiteSpace=wrap;html=1;" parent="1" vertex="1">
          <mxGeometry x="356" y="570" width="70" height="30" as="geometry" />
        </mxCell>
        <mxCell id="S7pL7fSciTL6mfDPEQfJ-45" value="P" style="rounded=0;whiteSpace=wrap;html=1;" parent="1" vertex="1">
          <mxGeometry x="356" y="520" width="70" height="30" as="geometry" />
        </mxCell>
        <mxCell id="S7pL7fSciTL6mfDPEQfJ-50" value="" style="endArrow=classic;html=1;rounded=0;exitX=0.5;exitY=0;exitDx=0;exitDy=0;entryX=0;entryY=0.5;entryDx=0;entryDy=0;" parent="1" target="S7pL7fSciTL6mfDPEQfJ-45" edge="1">
          <mxGeometry width="50" height="50" relative="1" as="geometry">
            <mxPoint x="306" y="550" as="sourcePoint" />
            <mxPoint x="306" y="530" as="targetPoint" />
            <Array as="points">
              <mxPoint x="306" y="535" />
            </Array>
          </mxGeometry>
        </mxCell>
        <mxCell id="S7pL7fSciTL6mfDPEQfJ-53" value="+" style="ellipse;whiteSpace=wrap;html=1;aspect=fixed;" parent="1" vertex="1">
          <mxGeometry x="299" y="550" width="20" height="20" as="geometry" />
        </mxCell>
        <mxCell id="S7pL7fSciTL6mfDPEQfJ-57" style="edgeStyle=orthogonalEdgeStyle;rounded=0;orthogonalLoop=1;jettySize=auto;html=1;exitX=0.5;exitY=1;exitDx=0;exitDy=0;entryX=0;entryY=0.677;entryDx=0;entryDy=0;entryPerimeter=0;" parent="1" source="S7pL7fSciTL6mfDPEQfJ-53" target="S7pL7fSciTL6mfDPEQfJ-44" edge="1">
          <mxGeometry relative="1" as="geometry" />
        </mxCell>
        <mxCell id="S7pL7fSciTL6mfDPEQfJ-59" value="" style="endArrow=none;html=1;rounded=0;exitX=1;exitY=0.5;exitDx=0;exitDy=0;entryX=1;entryY=0.5;entryDx=0;entryDy=0;" parent="1" source="S7pL7fSciTL6mfDPEQfJ-45" target="S7pL7fSciTL6mfDPEQfJ-44" edge="1">
          <mxGeometry width="50" height="50" relative="1" as="geometry">
            <mxPoint x="468" y="466" as="sourcePoint" />
            <mxPoint x="468" y="585" as="targetPoint" />
            <Array as="points">
              <mxPoint x="468" y="535" />
              <mxPoint x="468" y="585" />
            </Array>
          </mxGeometry>
        </mxCell>
        <mxCell id="S7pL7fSciTL6mfDPEQfJ-60" value="" style="endArrow=classic;html=1;rounded=0;exitX=1;exitY=0.5;exitDx=0;exitDy=0;" parent="1" source="S7pL7fSciTL6mfDPEQfJ-2" edge="1">
          <mxGeometry width="50" height="50" relative="1" as="geometry">
            <mxPoint x="416" y="466" as="sourcePoint" />
            <mxPoint x="819" y="380" as="targetPoint" />
          </mxGeometry>
        </mxCell>
        <mxCell id="S7pL7fSciTL6mfDPEQfJ-61" value="" style="endArrow=classic;html=1;rounded=0;exitX=1;exitY=0.5;exitDx=0;exitDy=0;entryX=1;entryY=0.5;entryDx=0;entryDy=0;" parent="1" source="S7pL7fSciTL6mfDPEQfJ-2" target="S7pL7fSciTL6mfDPEQfJ-32" edge="1">
          <mxGeometry width="50" height="50" relative="1" as="geometry">
            <mxPoint x="754" y="390" as="sourcePoint" />
            <mxPoint x="741" y="559" as="targetPoint" />
            <Array as="points">
              <mxPoint x="767" y="380" />
              <mxPoint x="767" y="560" />
            </Array>
          </mxGeometry>
        </mxCell>
        <mxCell id="S7pL7fSciTL6mfDPEQfJ-64" value="" style="edgeStyle=orthogonalEdgeStyle;rounded=0;orthogonalLoop=1;jettySize=auto;html=1;" parent="1" source="S7pL7fSciTL6mfDPEQfJ-32" target="S7pL7fSciTL6mfDPEQfJ-63" edge="1">
          <mxGeometry relative="1" as="geometry">
            <mxPoint x="611" y="560" as="sourcePoint" />
            <mxPoint x="468" y="560" as="targetPoint" />
          </mxGeometry>
        </mxCell>
        <mxCell id="S7pL7fSciTL6mfDPEQfJ-63" value="+" style="ellipse;whiteSpace=wrap;html=1;aspect=fixed;" parent="1" vertex="1">
          <mxGeometry x="498" y="550" width="20" height="20" as="geometry" />
        </mxCell>
        <mxCell id="S7pL7fSciTL6mfDPEQfJ-65" value="" style="endArrow=classic;html=1;rounded=0;entryX=0.5;entryY=1;entryDx=0;entryDy=0;" parent="1" target="S7pL7fSciTL6mfDPEQfJ-63" edge="1">
          <mxGeometry width="50" height="50" relative="1" as="geometry">
            <mxPoint x="508" y="637" as="sourcePoint" />
            <mxPoint x="466" y="416" as="targetPoint" />
          </mxGeometry>
        </mxCell>
        <mxCell id="S7pL7fSciTL6mfDPEQfJ-66" value="-" style="text;html=1;strokeColor=none;fillColor=none;align=center;verticalAlign=middle;whiteSpace=wrap;rounded=0;" parent="1" vertex="1">
          <mxGeometry x="170" y="395" width="34" height="16" as="geometry" />
        </mxCell>
        <mxCell id="S7pL7fSciTL6mfDPEQfJ-67" value="Error" style="text;html=1;strokeColor=none;fillColor=none;align=center;verticalAlign=middle;whiteSpace=wrap;rounded=0;" parent="1" vertex="1">
          <mxGeometry x="430" y="520" width="114" height="30" as="geometry" />
        </mxCell>
        <mxCell id="S7pL7fSciTL6mfDPEQfJ-73" value="Desired Distance" style="text;html=1;strokeColor=none;fillColor=none;align=center;verticalAlign=middle;whiteSpace=wrap;rounded=0;" parent="1" vertex="1">
          <mxGeometry x="510" y="600" width="114" height="30" as="geometry" />
        </mxCell>
        <mxCell id="S7pL7fSciTL6mfDPEQfJ-75" value="Error" style="text;html=1;strokeColor=none;fillColor=none;align=center;verticalAlign=middle;whiteSpace=wrap;rounded=0;" parent="1" vertex="1">
          <mxGeometry x="143" y="351" width="114" height="30" as="geometry" />
        </mxCell>
        <mxCell id="S7pL7fSciTL6mfDPEQfJ-83" value="Velocity Control&amp;nbsp; with 100Hz" style="text;html=1;strokeColor=none;fillColor=none;align=center;verticalAlign=middle;whiteSpace=wrap;rounded=0;" parent="1" vertex="1">
          <mxGeometry x="189" y="280" width="130" height="30" as="geometry" />
        </mxCell>
        <mxCell id="S7pL7fSciTL6mfDPEQfJ-84" value="Distance Control&amp;nbsp; with 10 Hz" style="text;html=1;strokeColor=none;fillColor=none;align=center;verticalAlign=middle;whiteSpace=wrap;rounded=0;" parent="1" vertex="1">
          <mxGeometry x="190" y="620" width="130" height="30" as="geometry" />
        </mxCell>
        <mxCell id="S7pL7fSciTL6mfDPEQfJ-86" value="Cascade Control" style="text;html=1;strokeColor=none;fillColor=none;align=center;verticalAlign=middle;whiteSpace=wrap;rounded=0;" parent="1" vertex="1">
          <mxGeometry x="104" y="195" width="130" height="30" as="geometry" />
        </mxCell>
        <mxCell id="S7pL7fSciTL6mfDPEQfJ-92" value="" style="endArrow=classic;html=1;rounded=0;exitX=0;exitY=0.5;exitDx=0;exitDy=0;entryX=0.25;entryY=1;entryDx=0;entryDy=0;" parent="1" source="S7pL7fSciTL6mfDPEQfJ-53" edge="1" target="S7pL7fSciTL6mfDPEQfJ-75">
          <mxGeometry width="50" height="50" relative="1" as="geometry">
            <mxPoint x="390" y="440" as="sourcePoint" />
            <mxPoint x="130" y="429" as="targetPoint" />
            <Array as="points">
              <mxPoint x="117" y="559" />
              <mxPoint x="117" y="381" />
            </Array>
          </mxGeometry>
        </mxCell>
        <mxCell id="mSXee-Ka8ZoqpLo2rssm-1" value="Desired Velocity" style="text;html=1;strokeColor=none;fillColor=none;align=center;verticalAlign=middle;whiteSpace=wrap;rounded=0;" vertex="1" parent="1">
          <mxGeometry x="66" y="351" width="104" height="30" as="geometry" />
        </mxCell>
      </root>
    </mxGraphModel>
  </diagram>
</mxfile>
